<?xml version="1.0" encoding="UTF-8"?>
<!--Generator: Apple Native CoreSVG 149-->
<!DOCTYPE svg
PUBLIC "-//W3C//DTD SVG 1.1//EN"
       "http://www.w3.org/Graphics/SVG/1.1/DTD/svg11.dtd">
<svg version="1.1" xmlns="http://www.w3.org/2000/svg" xmlns:xlink="http://www.w3.org/1999/xlink" width="3300" height="2200">
 <!--glyph: "uni10029C.medium", point size: 100.000000, font version: "Version 16.0d18e1", template writer version: "8"-->
 <g id="Notes">
  <rect height="2200" id="artboard" style="fill:white;opacity:1" width="3300" x="0" y="0"/>
  <line id="" style="fill:none;stroke:black;opacity:1;stroke-width:0.5;" x1="263" x2="3036" y1="292" y2="292"/>
  <text style="stroke:none;fill:black;font-family:-apple-system,&quot;SF Pro Display&quot;,&quot;SF Pro Text&quot;,Helvetica,sans-serif;font-weight:bold;" transform="matrix(1 0 0 1 263 322)">Weight/Scale Variations</text>
  <text style="stroke:none;fill:black;font-family:-apple-system,&quot;SF Pro Display&quot;,&quot;SF Pro Text&quot;,Helvetica,sans-serif;text-anchor:middle;" transform="matrix(1 0 0 1 559.711 322)">Ultralight</text>
  <text style="stroke:none;fill:black;font-family:-apple-system,&quot;SF Pro Display&quot;,&quot;SF Pro Text&quot;,Helvetica,sans-serif;text-anchor:middle;" transform="matrix(1 0 0 1 856.422 322)">Thin</text>
  <text style="stroke:none;fill:black;font-family:-apple-system,&quot;SF Pro Display&quot;,&quot;SF Pro Text&quot;,Helvetica,sans-serif;text-anchor:middle;" transform="matrix(1 0 0 1 1153.13 322)">Light</text>
  <text style="stroke:none;fill:black;font-family:-apple-system,&quot;SF Pro Display&quot;,&quot;SF Pro Text&quot;,Helvetica,sans-serif;text-anchor:middle;" transform="matrix(1 0 0 1 1449.84 322)">Regular</text>
  <text style="stroke:none;fill:black;font-family:-apple-system,&quot;SF Pro Display&quot;,&quot;SF Pro Text&quot;,Helvetica,sans-serif;text-anchor:middle;" transform="matrix(1 0 0 1 1746.56 322)">Medium</text>
  <text style="stroke:none;fill:black;font-family:-apple-system,&quot;SF Pro Display&quot;,&quot;SF Pro Text&quot;,Helvetica,sans-serif;text-anchor:middle;" transform="matrix(1 0 0 1 2043.27 322)">Semibold</text>
  <text style="stroke:none;fill:black;font-family:-apple-system,&quot;SF Pro Display&quot;,&quot;SF Pro Text&quot;,Helvetica,sans-serif;text-anchor:middle;" transform="matrix(1 0 0 1 2339.98 322)">Bold</text>
  <text style="stroke:none;fill:black;font-family:-apple-system,&quot;SF Pro Display&quot;,&quot;SF Pro Text&quot;,Helvetica,sans-serif;text-anchor:middle;" transform="matrix(1 0 0 1 2636.69 322)">Heavy</text>
  <text style="stroke:none;fill:black;font-family:-apple-system,&quot;SF Pro Display&quot;,&quot;SF Pro Text&quot;,Helvetica,sans-serif;text-anchor:middle;" transform="matrix(1 0 0 1 2933.4 322)">Black</text>
  <line id="" style="fill:none;stroke:black;opacity:1;stroke-width:0.5;" x1="263" x2="3036" y1="1903" y2="1903"/>
  <g id="" transform="matrix(1 0 0 1 263 1933)">
   <path d="M9.24805 0.830078C13.5547 0.830078 17.1387-2.74414 17.1387-7.05078C17.1387-11.3574 13.5449-14.9316 9.23828-14.9316C4.94141-14.9316 1.36719-11.3574 1.36719-7.05078C1.36719-2.74414 4.95117 0.830078 9.24805 0.830078ZM9.24805-0.654297C5.70312-0.654297 2.87109-3.49609 2.87109-7.05078C2.87109-10.6055 5.69336-13.4473 9.23828-13.4473C12.793-13.4473 15.6348-10.6055 15.6445-7.05078C15.6543-3.49609 12.8027-0.654297 9.24805-0.654297ZM6.39648-6.31836L8.50586-6.31836L8.50586-4.19922C8.50586-3.75977 8.79883-3.45703 9.22852-3.45703C9.67773-3.45703 9.9707-3.75977 9.9707-4.19922L9.9707-6.31836L12.0996-6.31836C12.5391-6.31836 12.8418-6.61133 12.8418-7.04102C12.8418-7.48047 12.5391-7.7832 12.0996-7.7832L9.9707-7.7832L9.9707-9.89258C9.9707-10.3418 9.67773-10.6445 9.22852-10.6445C8.79883-10.6445 8.50586-10.3418 8.50586-9.89258L8.50586-7.7832L6.39648-7.7832C5.94727-7.7832 5.64453-7.48047 5.64453-7.04102C5.64453-6.61133 5.94727-6.31836 6.39648-6.31836Z"/>
  </g>
  <g id="" transform="matrix(1 0 0 1 281.506 1933)">
   <path d="M11.709 2.91016C17.1582 2.91016 21.6699-1.61133 21.6699-7.05078C21.6699-12.5 17.1484-17.0117 11.6992-17.0117C6.25977-17.0117 1.74805-12.5 1.74805-7.05078C1.74805-1.61133 6.26953 2.91016 11.709 2.91016ZM11.709 1.25C7.09961 1.25 3.41797-2.44141 3.41797-7.05078C3.41797-11.6602 7.08984-15.3516 11.6992-15.3516C16.3086-15.3516 20-11.6602 20.0098-7.05078C20.0195-2.44141 16.3184 1.25 11.709 1.25ZM7.98828-6.23047L10.8789-6.23047L10.8789-3.32031C10.8789-2.83203 11.2109-2.5 11.6895-2.5C12.1777-2.5 12.5195-2.83203 12.5195-3.32031L12.5195-6.23047L15.4297-6.23047C15.918-6.23047 16.25-6.5625 16.25-7.04102C16.25-7.5293 15.918-7.87109 15.4297-7.87109L12.5195-7.87109L12.5195-10.7617C12.5195-11.2695 12.1777-11.6016 11.6895-11.6016C11.2109-11.6016 10.8789-11.2598 10.8789-10.7617L10.8789-7.87109L7.98828-7.87109C7.48047-7.87109 7.14844-7.5293 7.14844-7.04102C7.14844-6.5625 7.49023-6.23047 7.98828-6.23047Z"/>
  </g>
  <g id="" transform="matrix(1 0 0 1 304.924 1933)">
   <path d="M14.9707 5.66406C21.9336 5.66406 27.6953-0.0976562 27.6953-7.05078C27.6953-14.0137 21.9238-19.7754 14.9609-19.7754C8.00781-19.7754 2.25586-14.0137 2.25586-7.05078C2.25586-0.0976562 8.01758 5.66406 14.9707 5.66406ZM14.9707 3.84766C8.93555 3.84766 4.08203-1.01562 4.08203-7.05078C4.08203-13.0957 8.92578-17.9492 14.9609-17.9492C21.0059-17.9492 25.8594-13.0957 25.8691-7.05078C25.8789-1.01562 21.0156 3.84766 14.9707 3.84766ZM10.0586-6.14258L14.0625-6.14258L14.0625-2.12891C14.0625-1.5918 14.4336-1.2207 14.9512-1.2207C15.4883-1.2207 15.8594-1.5918 15.8594-2.12891L15.8594-6.14258L19.8828-6.14258C20.4102-6.14258 20.791-6.51367 20.791-7.03125C20.791-7.56836 20.4199-7.94922 19.8828-7.94922L15.8594-7.94922L15.8594-11.9531C15.8594-12.5098 15.4883-12.8809 14.9512-12.8809C14.4336-12.8809 14.0625-12.5 14.0625-11.9531L14.0625-7.94922L10.0586-7.94922C9.50195-7.94922 9.13086-7.56836 9.13086-7.03125C9.13086-6.51367 9.51172-6.14258 10.0586-6.14258Z"/>
  </g>
  <text style="stroke:none;fill:black;font-family:-apple-system,&quot;SF Pro Display&quot;,&quot;SF Pro Text&quot;,Helvetica,sans-serif;font-weight:bold;" transform="matrix(1 0 0 1 263 1953)">Design Variations</text>
  <text style="stroke:none;fill:black;font-family:-apple-system,&quot;SF Pro Display&quot;,&quot;SF Pro Text&quot;,Helvetica,sans-serif;" transform="matrix(1 0 0 1 263 1971)">Symbols are supported in up to nine weights and three scales.</text>
  <text style="stroke:none;fill:black;font-family:-apple-system,&quot;SF Pro Display&quot;,&quot;SF Pro Text&quot;,Helvetica,sans-serif;" transform="matrix(1 0 0 1 263 1989)">For optimal layout with text and other symbols, vertically align</text>
  <text style="stroke:none;fill:black;font-family:-apple-system,&quot;SF Pro Display&quot;,&quot;SF Pro Text&quot;,Helvetica,sans-serif;" transform="matrix(1 0 0 1 263 2007)">symbols with the adjacent text.</text>
  <line id="" style="fill:none;stroke:#00AEEF;stroke-width:0.5;opacity:1.0;" x1="776" x2="776" y1="1919" y2="1933"/>
  <g id="" transform="matrix(1 0 0 1 776 1933)">
   <path d="M3.31055 0.126953C3.82812 0.126953 4.08203-0.0683594 4.26758-0.605469L5.52734-4.0625L11.2891-4.0625L12.5488-0.605469C12.7344-0.0683594 12.9883 0.126953 13.4961 0.126953C14.0137 0.126953 14.3457-0.185547 14.3457-0.673828C14.3457-0.839844 14.3164-0.986328 14.2383-1.20117L9.6582-13.3887C9.43359-13.9941 9.0332-14.2871 8.4082-14.2871C7.80273-14.2871 7.39258-13.9941 7.17773-13.3984L2.59766-1.19141C2.51953-0.976562 2.49023-0.830078 2.49023-0.664062C2.49023-0.175781 2.80273 0.126953 3.31055 0.126953ZM6.00586-5.53711L8.37891-12.1094L8.42773-12.1094L10.8008-5.53711Z"/>
  </g>
  <line id="" style="fill:none;stroke:#00AEEF;stroke-width:0.5;opacity:1.0;" x1="792.836" x2="792.836" y1="1919" y2="1933"/>
  <text style="stroke:none;fill:black;font-family:-apple-system,&quot;SF Pro Display&quot;,&quot;SF Pro Text&quot;,Helvetica,sans-serif;font-weight:bold;" transform="matrix(1 0 0 1 776 1953)">Margins</text>
  <text style="stroke:none;fill:black;font-family:-apple-system,&quot;SF Pro Display&quot;,&quot;SF Pro Text&quot;,Helvetica,sans-serif;" transform="matrix(1 0 0 1 776 1971)">Leading and trailing margins on the left and right side of each symbol</text>
  <text style="stroke:none;fill:black;font-family:-apple-system,&quot;SF Pro Display&quot;,&quot;SF Pro Text&quot;,Helvetica,sans-serif;" transform="matrix(1 0 0 1 776 1989)">can be adjusted by modifying the x-location of the margin guidelines.</text>
  <text style="stroke:none;fill:black;font-family:-apple-system,&quot;SF Pro Display&quot;,&quot;SF Pro Text&quot;,Helvetica,sans-serif;" transform="matrix(1 0 0 1 776 2007)">Modifications are automatically applied proportionally to all</text>
  <text style="stroke:none;fill:black;font-family:-apple-system,&quot;SF Pro Display&quot;,&quot;SF Pro Text&quot;,Helvetica,sans-serif;" transform="matrix(1 0 0 1 776 2025)">scales and weights.</text>
  <g id="" transform="matrix(1 0 0 1 1289 1933)">
   <path d="M2.8418 1.86523L4.54102 3.57422C5.40039 4.44336 6.38672 4.38477 7.31445 3.35938L17.4902-7.85156C17.7539-7.76367 18.0273-7.7832 18.3398-7.8418L19.4043-8.03711L20.0684-7.36328L20.0293-6.80664C19.9902-6.30859 20.1172-5.92773 20.6055-5.44922L21.3672-4.70703C21.8457-4.22852 22.4609-4.19922 22.9297-4.66797L25.8398-7.58789C26.3086-8.05664 26.2891-8.65234 25.8105-9.13086L25.0391-9.89258C24.5605-10.3711 24.1895-10.5273 23.7109-10.4883L23.1348-10.4395L22.4902-11.0742L22.7344-12.1973C22.8613-12.7637 22.7051-13.2031 22.1191-13.7891L19.9219-15.9766C16.582-19.2969 12.1484-19.2188 9.25781-16.3281C8.83789-15.918 8.80859-15.3418 9.04297-14.9512C9.27734-14.5898 9.73633-14.3555 10.3809-14.5215C11.8457-14.8633 13.3691-14.9219 14.7949-13.9844L14.209-12.5293C14.0137-12.0508 13.9844-11.6504 14.1113-11.2891L3.04688-0.898438C2.06055 0.0195312 1.98242 0.996094 2.8418 1.86523ZM10.752-15.957C13.1836-17.7344 16.4746-17.4316 18.7012-15.2051L21.1328-12.793C21.3672-12.5586 21.4062-12.373 21.3379-12.0312L21.0156-10.5469L22.5195-9.0625L23.5059-9.12109C23.7598-9.13086 23.8379-9.11133 24.0332-8.91602L24.6094-8.33984L22.168-5.89844L21.5918-6.47461C21.3965-6.66992 21.3672-6.74805 21.377-7.01172L21.4453-7.98828L19.9512-9.47266L18.4277-9.21875C18.1055-9.15039 17.959-9.17969 17.7148-9.41406L15.7129-11.416C15.459-11.6504 15.4297-11.8164 15.5859-12.1875L16.4648-14.2773C14.9023-15.7324 12.8711-16.3574 10.8398-15.7617C10.6836-15.7227 10.625-15.8496 10.752-15.957ZM5.27344 2.30469L4.10156 1.14258C3.63281 0.683594 3.74023 0.341797 4.14062-0.0195312L14.9512-10.1953L16.416-8.71094L6.42578 2.27539C6.07422 2.67578 5.74219 2.77344 5.27344 2.30469Z"/>
  </g>
  <text style="stroke:none;fill:black;font-family:-apple-system,&quot;SF Pro Display&quot;,&quot;SF Pro Text&quot;,Helvetica,sans-serif;font-weight:bold;" transform="matrix(1 0 0 1 1289 1953)">Exporting</text>
  <text style="stroke:none;fill:black;font-family:-apple-system,&quot;SF Pro Display&quot;,&quot;SF Pro Text&quot;,Helvetica,sans-serif;" transform="matrix(1 0 0 1 1289 1971)">Symbols should be outlined when exporting to ensure the</text>
  <text style="stroke:none;fill:black;font-family:-apple-system,&quot;SF Pro Display&quot;,&quot;SF Pro Text&quot;,Helvetica,sans-serif;" transform="matrix(1 0 0 1 1289 1989)">design is preserved when submitting to Xcode.</text>
  <text id="template-version" style="stroke:none;fill:black;font-family:-apple-system,&quot;SF Pro Display&quot;,&quot;SF Pro Text&quot;,Helvetica,sans-serif;text-anchor:end;" transform="matrix(1 0 0 1 3036 1933)">Template v.2.0</text>
  <text style="stroke:none;fill:black;font-family:-apple-system,&quot;SF Pro Display&quot;,&quot;SF Pro Text&quot;,Helvetica,sans-serif;text-anchor:end;" transform="matrix(1 0 0 1 3036 1951)">Requires Xcode 12 or greater</text>
  <text style="stroke:none;fill:black;font-family:-apple-system,&quot;SF Pro Display&quot;,&quot;SF Pro Text&quot;,Helvetica,sans-serif;text-anchor:end;" transform="matrix(1 0 0 1 3036 1969)">Generated from pause.rectangle.fill</text>
  <text style="stroke:none;fill:black;font-family:-apple-system,&quot;SF Pro Display&quot;,&quot;SF Pro Text&quot;,Helvetica,sans-serif;text-anchor:end;" transform="matrix(1 0 0 1 3036 1987)">Typeset at 100 points</text>
  <text style="stroke:none;fill:black;font-family:-apple-system,&quot;SF Pro Display&quot;,&quot;SF Pro Text&quot;,Helvetica,sans-serif;" transform="matrix(1 0 0 1 263 726)">Small</text>
  <text style="stroke:none;fill:black;font-family:-apple-system,&quot;SF Pro Display&quot;,&quot;SF Pro Text&quot;,Helvetica,sans-serif;" transform="matrix(1 0 0 1 263 1156)">Medium</text>
  <text style="stroke:none;fill:black;font-family:-apple-system,&quot;SF Pro Display&quot;,&quot;SF Pro Text&quot;,Helvetica,sans-serif;" transform="matrix(1 0 0 1 263 1586)">Large</text>
 </g>
 <g id="Guides">
  <g id="H-reference" style="fill:#27AAE1;stroke:none;" transform="matrix(1 0 0 1 339 696)">
   <path d="M0.976562 0L3.66211 0L12.9883-24.4629L45.752-24.4629L55.127 0L57.7637 0L30.6152-70.459L28.125-70.459ZM29.3457-67.1387L29.4434-67.1387L44.873-26.709L13.8672-26.709Z"/>
  </g>
  <line id="Baseline-S" style="fill:none;stroke:#27AAE1;opacity:1;stroke-width:0.5;" x1="263" x2="3036" y1="696" y2="696"/>
  <line id="Capline-S" style="fill:none;stroke:#27AAE1;opacity:1;stroke-width:0.5;" x1="263" x2="3036" y1="625.541" y2="625.541"/>
  <g id="H-reference" style="fill:#27AAE1;stroke:none;" transform="matrix(1 0 0 1 339 1126)">
   <path d="M0.976562 0L3.66211 0L12.9883-24.4629L45.752-24.4629L55.127 0L57.7637 0L30.6152-70.459L28.125-70.459ZM29.3457-67.1387L29.4434-67.1387L44.873-26.709L13.8672-26.709Z"/>
  </g>
  <line id="Baseline-M" style="fill:none;stroke:#27AAE1;opacity:1;stroke-width:0.5;" x1="263" x2="3036" y1="1126" y2="1126"/>
  <line id="Capline-M" style="fill:none;stroke:#27AAE1;opacity:1;stroke-width:0.5;" x1="263" x2="3036" y1="1055.54" y2="1055.54"/>
  <g id="H-reference" style="fill:#27AAE1;stroke:none;" transform="matrix(1 0 0 1 339 1556)">
   <path d="M0.976562 0L3.66211 0L12.9883-24.4629L45.752-24.4629L55.127 0L57.7637 0L30.6152-70.459L28.125-70.459ZM29.3457-67.1387L29.4434-67.1387L44.873-26.709L13.8672-26.709Z"/>
  </g>
  <line id="Baseline-L" style="fill:none;stroke:#27AAE1;opacity:1;stroke-width:0.5;" x1="263" x2="3036" y1="1556" y2="1556"/>
  <line id="Capline-L" style="fill:none;stroke:#27AAE1;opacity:1;stroke-width:0.5;" x1="263" x2="3036" y1="1485.54" y2="1485.54"/>
  <line id="left-margin" style="fill:none;stroke:#00AEEF;stroke-width:0.5;opacity:1.0;" x1="1379.82" x2="1379.82" y1="1030.79" y2="1150.12"/>
  <line id="right-margin" style="fill:none;stroke:#00AEEF;stroke-width:0.5;opacity:1.0;" x1="1519.86" x2="1519.86" y1="1030.79" y2="1150.12"/>
 </g>
 <g id="Symbols">
  <g id="Black-L" transform="matrix(1 0 0 1 2841.51 1556)">
   <path d="M39.9902 26.5137L143.799 26.5137C159.082 26.5137 167.725 17.8711 167.725 2.68555L167.725-73.0957C167.725-88.2812 159.082-96.875 143.799-96.875L39.9902-96.875C24.7559-96.875 16.0645-88.2812 16.0645-73.0957L16.0645 2.68555C16.0645 17.8711 24.7559 26.5137 39.9902 26.5137ZM72.0215-7.86133C68.2129-7.86133 66.0156-10.1562 66.0156-13.623L66.0156-56.6895C66.0156-60.1562 68.2129-62.5 72.0215-62.5L80.2734-62.5C84.082-62.5 86.2305-60.1562 86.2305-56.6895L86.2305-13.623C86.2305-10.1562 84.082-7.86133 80.2734-7.86133ZM103.564-7.86133C99.7559-7.86133 97.6562-10.1562 97.6562-13.623L97.6562-56.6895C97.6562-60.1562 99.7559-62.5 103.564-62.5L111.865-62.5C115.674-62.5 117.822-60.1562 117.822-56.6895L117.822-13.623C117.822-10.1562 115.674-7.86133 111.865-7.86133Z"/>
  </g>
  <g id="Heavy-L" transform="matrix(1 0 0 1 2545.23 1556)">
   <path d="M38.8184 25.4883L144.092 25.4883C158.74 25.4883 166.846 17.4316 166.846 2.88086L166.846-73.2422C166.846-87.793 158.74-95.8496 144.092-95.8496L38.8184-95.8496C24.2188-95.8496 16.0645-87.793 16.0645-73.2422L16.0645 2.88086C16.0645 17.4316 24.2188 25.4883 38.8184 25.4883ZM72.0215-8.39844C68.4082-8.39844 66.4062-10.5957 66.4062-13.8184L66.4062-56.543C66.4062-59.7656 68.4082-61.9141 72.0215-61.9141L79.834-61.9141C83.4961-61.9141 85.4492-59.7656 85.4492-56.543L85.4492-13.8184C85.4492-10.5957 83.4961-8.39844 79.834-8.39844ZM103.174-8.39844C99.5117-8.39844 97.5586-10.5957 97.5586-13.8184L97.5586-56.543C97.5586-59.7656 99.5117-61.9141 103.174-61.9141L110.986-61.9141C114.6-61.9141 116.602-59.7656 116.602-56.543L116.602-13.8184C116.602-10.5957 114.6-8.39844 110.986-8.39844Z"/>
  </g>
  <g id="Bold-L" transform="matrix(1 0 0 1 2249.01 1556)">
   <path d="M37.5 24.3652L144.385 24.3652C158.35 24.3652 165.869 16.8945 165.869 3.07617L165.869-73.3887C165.869-87.207 158.35-94.7266 144.385-94.7266L37.5-94.7266C23.6328-94.7266 16.0645-87.2559 16.0645-73.3887L16.0645 3.07617C16.0645 16.8945 23.6328 24.3652 37.5 24.3652ZM72.0215-9.0332C68.6035-9.0332 66.7969-11.0352 66.7969-13.9648L66.7969-56.3965C66.7969-59.3262 68.6035-61.3281 72.0215-61.3281L79.3457-61.3281C82.8125-61.3281 84.5703-59.3262 84.5703-56.3965L84.5703-13.9648C84.5703-11.0352 82.8125-9.0332 79.3457-9.0332ZM102.686-9.0332C99.2676-9.0332 97.4609-11.0352 97.4609-13.9648L97.4609-56.3965C97.4609-59.3262 99.2676-61.3281 102.686-61.3281L110.01-61.3281C113.428-61.3281 115.186-59.3262 115.186-56.3965L115.186-13.9648C115.186-11.0352 113.428-9.0332 110.01-9.0332Z"/>
  </g>
  <g id="Semibold-L" transform="matrix(1 0 0 1 1952.64 1556)">
   <path d="M36.6211 23.584L144.629 23.584C158.057 23.584 165.186 16.5039 165.186 3.17383L165.186-73.5352C165.186-86.8164 158.057-93.9453 144.629-93.9453L36.6211-93.9453C23.1934-93.9453 16.0645-86.8652 16.0645-73.5352L16.0645 3.17383C16.0645 16.5527 23.1934 23.584 36.6211 23.584ZM72.0215-9.47266C68.75-9.47266 67.0898-11.377 67.0898-14.1113L67.0898-56.2988C67.0898-59.0332 68.75-60.8887 72.0215-60.8887L79.0039-60.8887C82.3242-60.8887 83.9355-59.0332 83.9355-56.2988L83.9355-14.1113C83.9355-11.377 82.3242-9.47266 79.0039-9.47266ZM102.344-9.47266C99.0723-9.47266 97.4121-11.377 97.4121-14.1113L97.4121-56.2988C97.4121-59.0332 99.0723-60.8887 102.344-60.8887L109.326-60.8887C112.598-60.8887 114.258-59.0332 114.258-56.2988L114.258-14.1113C114.258-11.377 112.598-9.47266 109.326-9.47266Z"/>
  </g>
  <g id="Medium-L" transform="matrix(1 0 0 1 1656.2 1556)">
   <path d="M35.9375 22.998L144.775 22.998C157.861 22.998 164.648 16.2109 164.648 3.27148L164.648-73.6328C164.648-86.5234 157.861-93.3105 144.775-93.3105L35.9375-93.3105C22.9004-93.3105 16.0645-86.5723 16.0645-73.6328L16.0645 3.27148C16.0645 16.2598 22.9004 22.998 35.9375 22.998ZM72.0215-9.81445C68.8477-9.81445 67.2852-11.5723 67.2852-14.209L67.2852-56.2012C67.2852-58.7891 68.8477-60.5957 72.0215-60.5957L78.7598-60.5957C81.9824-60.5957 83.4961-58.7891 83.4961-56.2012L83.4961-14.209C83.4961-11.5723 81.9824-9.81445 78.7598-9.81445ZM102.1-9.81445C98.9258-9.81445 97.3633-11.5723 97.3633-14.209L97.3633-56.2012C97.3633-58.7891 98.9258-60.5957 102.1-60.5957L108.838-60.5957C111.963-60.5957 113.525-58.7891 113.525-56.2012L113.525-14.209C113.525-11.5723 111.963-9.81445 108.838-9.81445Z"/>
  </g>
  <g id="Regular-L" transform="matrix(1 0 0 1 1359.81 1556)">
   <path d="M35.0586 22.2168L144.971 22.2168C157.617 22.2168 164.014 15.8691 164.014 3.41797L164.014-73.7305C164.014-86.1816 157.617-92.5293 144.971-92.5293L35.0586-92.5293C22.4609-92.5293 16.0645-86.2305 16.0645-73.7305L16.0645 3.41797C16.0645 15.918 22.4609 22.2168 35.0586 22.2168ZM72.0215-10.2539C68.9941-10.2539 67.5781-11.9141 67.5781-14.3066L67.5781-56.1035C67.5781-58.4961 68.9941-60.1562 72.0215-60.1562L78.418-60.1562C81.4941-60.1562 82.8613-58.4961 82.8613-56.1035L82.8613-14.3066C82.8613-11.9141 81.4941-10.2539 78.418-10.2539ZM101.758-10.2539C98.7305-10.2539 97.3145-11.9141 97.3145-14.3066L97.3145-56.1035C97.3145-58.4961 98.7305-60.1562 101.758-60.1562L108.154-60.1562C111.182-60.1562 112.549-58.4961 112.549-56.1035L112.549-14.3066C112.549-11.9141 111.182-10.2539 108.154-10.2539Z"/>
  </g>
  <g id="Light-L" transform="matrix(1 0 0 1 1063.56 1556)">
   <path d="M34.0332 21.4355L145.117 21.4355C157.031 21.4355 163.086 15.2344 163.086 3.56445L163.086-73.8281C163.086-85.5469 157.031-91.6992 145.117-91.6992L34.0332-91.6992C22.168-91.6992 16.0645-85.6445 16.0645-73.8281L16.0645 3.56445C16.0645 15.3809 22.168 21.4355 34.0332 21.4355ZM72.0215-10.7422C69.1895-10.7422 67.8711-12.3047 67.8711-14.5508L67.8711-55.8105C67.8711-58.0566 69.1895-59.6191 72.0215-59.6191L78.418-59.6191C81.2988-59.6191 82.5684-58.0566 82.5684-55.8105L82.5684-14.5508C82.5684-12.3047 81.2988-10.7422 78.418-10.7422ZM100.83-10.7422C97.998-10.7422 96.6797-12.3047 96.6797-14.5508L96.6797-55.8105C96.6797-58.0566 97.998-59.6191 100.83-59.6191L107.227-59.6191C110.01-59.6191 111.328-58.0566 111.328-55.8105L111.328-14.5508C111.328-12.3047 110.01-10.7422 107.227-10.7422Z"/>
  </g>
  <g id="Thin-L" transform="matrix(1 0 0 1 767.433 1556)">
   <path d="M32.666 20.3613L145.312 20.3613C156.201 20.3613 161.914 14.4531 161.914 3.75977L161.914-73.9746C161.914-84.7168 156.201-90.5762 145.312-90.5762L32.666-90.5762C21.7773-90.5762 16.0645-84.8633 16.0645-73.9746L16.0645 3.75977C16.0645 14.6484 21.7773 20.3613 32.666 20.3613ZM71.9727-11.4258C69.4824-11.4258 68.2617-12.8418 68.2617-14.8926L68.2617-55.4199C68.2617-57.4707 69.4824-58.8867 71.9727-58.8867L78.418-58.8867C81.0059-58.8867 82.1289-57.4707 82.1289-55.4199L82.1289-14.8926C82.1289-12.8418 81.0059-11.4258 78.418-11.4258ZM99.5605-11.4258C97.0703-11.4258 95.8984-12.8418 95.8984-14.8926L95.8984-55.4199C95.8984-57.4707 97.0703-58.8867 99.5605-58.8867L106.006-58.8867C108.496-58.8867 109.717-57.4707 109.717-55.4199L109.717-14.8926C109.717-12.8418 108.496-11.4258 106.006-11.4258Z"/>
  </g>
  <g id="Ultralight-L" transform="matrix(1 0 0 1 471.015 1556)">
   <path d="M31.9824 19.7754L145.41 19.7754C155.811 19.7754 161.328 14.0625 161.328 3.85742L161.328-74.0723C161.328-84.2773 155.811-89.9902 145.41-89.9902L31.9824-89.9902C21.582-89.9902 16.0645-84.4727 16.0645-74.0723L16.0645 3.85742C16.0645 14.2578 21.582 19.7754 31.9824 19.7754ZM71.9727-11.8164C69.6289-11.8164 68.457-13.1348 68.457-15.0879L68.457-55.1758C68.457-57.1777 69.6289-58.4961 71.9727-58.4961L78.418-58.4961C80.8594-58.4961 81.9336-57.1777 81.9336-55.1758L81.9336-15.0879C81.9336-13.1348 80.8594-11.8164 78.418-11.8164ZM98.9258-11.8164C96.6309-11.8164 95.5078-13.1348 95.5078-15.0879L95.5078-55.1758C95.5078-57.1777 96.6309-58.4961 98.9258-58.4961L105.371-58.4961C107.715-58.4961 108.887-57.1777 108.887-55.1758L108.887-15.0879C108.887-13.1348 107.715-11.8164 105.371-11.8164Z"/>
  </g>
  <g id="Black-M" transform="matrix(1 0 0 1 2861.84 1126)">
   <path d="M31.9824 13.5742L111.133 13.5742C123.389 13.5742 130.664 6.29883 130.664-5.95703L130.664-64.4043C130.664-76.6602 123.389-83.9355 111.133-83.9355L31.9824-83.9355C19.7266-83.9355 12.4512-76.6602 12.4512-64.4043L12.4512-5.95703C12.4512 6.29883 19.7266 13.5742 31.9824 13.5742ZM55.8105-13.5254C52.7344-13.5254 50.8301-15.4785 50.8301-18.4082L50.8301-51.9043C50.8301-54.834 52.7344-56.7871 55.8105-56.7871L62.8418-56.7871C65.8691-56.7871 67.7246-54.834 67.7246-51.9043L67.7246-18.4082C67.7246-15.4785 65.8691-13.5254 62.8418-13.5254ZM80.3711-13.5254C77.2949-13.5254 75.4883-15.4785 75.4883-18.4082L75.4883-51.9043C75.4883-54.834 77.2949-56.7871 80.3711-56.7871L87.4023-56.7871C90.4785-56.7871 92.334-54.834 92.334-51.9043L92.334-18.4082C92.334-15.4785 90.4785-13.5254 87.4023-13.5254Z"/>
  </g>
  <g id="Heavy-M" transform="matrix(1 0 0 1 2565.5 1126)">
   <path d="M31.0059 12.6465L111.426 12.6465C123.193 12.6465 129.932 5.9082 129.932-5.81055L129.932-64.5508C129.932-76.2695 123.193-83.0566 111.426-83.0566L31.0059-83.0566C19.2383-83.0566 12.4512-76.3184 12.4512-64.5508L12.4512-5.81055C12.4512 5.9082 19.2383 12.6465 31.0059 12.6465ZM55.8105-14.0137C52.8809-14.0137 51.1719-15.8203 51.1719-18.5547L51.1719-51.8066C51.1719-54.541 52.8809-56.3477 55.8105-56.3477L62.3535-56.3477C65.2832-56.3477 66.9434-54.541 66.9434-51.8066L66.9434-18.5547C66.9434-15.8203 65.2832-14.0137 62.3535-14.0137ZM80.127-14.0137C77.1973-14.0137 75.5371-15.8203 75.5371-18.5547L75.5371-51.8066C75.5371-54.541 77.1973-56.3477 80.127-56.3477L86.6699-56.3477C89.5996-56.3477 91.3086-54.541 91.3086-51.8066L91.3086-18.5547C91.3086-15.8203 89.5996-14.0137 86.6699-14.0137Z"/>
  </g>
  <g id="Bold-M" transform="matrix(1 0 0 1 2269.18 1126)">
   <path d="M29.8828 11.6699L111.719 11.6699C122.949 11.6699 129.15 5.46875 129.15-5.66406L129.15-64.6973C129.15-75.8789 122.949-82.0312 111.719-82.0312L29.8828-82.0312C18.6523-82.0312 12.4512-75.8789 12.4512-64.6973L12.4512-5.66406C12.4512 5.51758 18.6523 11.6699 29.8828 11.6699ZM55.8105-14.5508C53.0273-14.5508 51.5137-16.2109 51.5137-18.6523L51.5137-51.709C51.5137-54.1992 53.0273-55.8105 55.8105-55.8105L61.8164-55.8105C64.5996-55.8105 66.0645-54.1992 66.0645-51.709L66.0645-18.6523C66.0645-16.2109 64.5996-14.5508 61.8164-14.5508ZM79.8828-14.5508C77.0996-14.5508 75.5859-16.2109 75.5859-18.6523L75.5859-51.709C75.5859-54.1992 77.0996-55.8105 79.8828-55.8105L85.8887-55.8105C88.623-55.8105 90.1367-54.1992 90.1367-51.709L90.1367-18.6523C90.1367-16.2109 88.623-14.5508 85.8887-14.5508Z"/>
  </g>
  <g id="Semibold-M" transform="matrix(1 0 0 1 1972.76 1126)">
   <path d="M29.1016 10.9863L111.914 10.9863C122.803 10.9863 128.564 5.17578 128.564-5.56641L128.564-64.8438C128.564-75.5859 122.803-81.3477 111.914-81.3477L29.1016-81.3477C18.2617-81.3477 12.4512-75.5859 12.4512-64.8438L12.4512-5.56641C12.4512 5.22461 18.2617 10.9863 29.1016 10.9863ZM55.8105-14.9414C53.125-14.9414 51.7578-16.4551 51.7578-18.75L51.7578-51.6602C51.7578-53.9551 53.125-55.4688 55.8105-55.4688L61.4258-55.4688C64.1113-55.4688 65.4785-53.9551 65.4785-51.6602L65.4785-18.75C65.4785-16.4551 64.1113-14.9414 61.4258-14.9414ZM79.7363-14.9414C77.0508-14.9414 75.6836-16.4551 75.6836-18.75L75.6836-51.6602C75.6836-53.9551 77.0508-55.4688 79.7363-55.4688L85.3027-55.4688C87.9883-55.4688 89.3555-53.9551 89.3555-51.6602L89.3555-18.75C89.3555-16.4551 87.9883-14.9414 85.3027-14.9414Z"/>
  </g>
  <g id="Medium-M" transform="matrix(1 0 0 1 1676.24 1126)">
   <path d="M28.5156 10.4492L112.061 10.4492C122.656 10.4492 128.174 4.98047 128.174-5.46875L128.174-64.8926C128.174-75.3418 122.656-80.8105 112.061-80.8105L28.5156-80.8105C17.9688-80.8105 12.4512-75.3906 12.4512-64.8926L12.4512-5.46875C12.4512 4.98047 17.9688 10.4492 28.5156 10.4492ZM55.8594-15.1855C53.2227-15.1855 51.9531-16.6504 51.9531-18.7988L51.9531-51.6113C51.9531-53.7598 53.2227-55.2246 55.8594-55.2246L61.1328-55.2246C63.7695-55.2246 64.9902-53.7598 64.9902-51.6113L64.9902-18.7988C64.9902-16.6504 63.7695-15.1855 61.1328-15.1855ZM79.5898-15.1855C77.002-15.1855 75.6836-16.6504 75.6836-18.7988L75.6836-51.6113C75.6836-53.7598 77.002-55.2246 79.5898-55.2246L84.9121-55.2246C87.4512-55.2246 88.7207-53.7598 88.7207-51.6113L88.7207-18.7988C88.7207-16.6504 87.4512-15.1855 84.9121-15.1855Z"/>
  </g>
  <g id="Regular-M" transform="matrix(1 0 0 1 1379.82 1126)">
   <path d="M27.7832 9.76562L112.256 9.76562C122.51 9.76562 127.588 4.6875 127.588-5.37109L127.588-64.9902C127.588-75.0488 122.51-80.127 112.256-80.127L27.7832-80.127C17.5781-80.127 12.4512-75.0977 12.4512-64.9902L12.4512-5.37109C12.4512 4.73633 17.5781 9.76562 27.7832 9.76562ZM55.8594-15.5762C53.3203-15.5762 52.1973-16.9434 52.1973-18.8477L52.1973-51.5625C52.1973-53.5156 53.3203-54.8828 55.8594-54.8828L60.791-54.8828C63.2812-54.8828 64.4043-53.5156 64.4043-51.5625L64.4043-18.8477C64.4043-16.9434 63.2812-15.5762 60.791-15.5762ZM79.3945-15.5762C76.9043-15.5762 75.7324-16.9434 75.7324-18.8477L75.7324-51.5625C75.7324-53.5156 76.9043-54.8828 79.3945-54.8828L84.375-54.8828C86.8164-54.8828 87.9395-53.5156 87.9395-51.5625L87.9395-18.8477C87.9395-16.9434 86.8164-15.5762 84.375-15.5762Z"/>
  </g>
  <g id="Light-M" transform="matrix(1 0 0 1 1083.5 1126)">
   <path d="M26.8555 9.0332L112.402 9.0332C121.973 9.0332 126.807 4.15039 126.807-5.22461L126.807-65.0879C126.807-74.5117 121.973-79.3945 112.402-79.3945L26.8555-79.3945C17.334-79.3945 12.4512-74.5605 12.4512-65.0879L12.4512-5.22461C12.4512 4.19922 17.334 9.0332 26.8555 9.0332ZM55.8105-16.0156C53.5645-16.0156 52.4902-17.2852 52.4902-19.0918L52.4902-51.3184C52.4902-53.125 53.5645-54.3457 55.8105-54.3457L60.791-54.3457C63.0859-54.3457 64.1602-53.125 64.1602-51.3184L64.1602-19.0918C64.1602-17.2852 63.0859-16.0156 60.791-16.0156ZM78.5645-16.0156C76.2695-16.0156 75.1953-17.2852 75.1953-19.0918L75.1953-51.3184C75.1953-53.125 76.2695-54.3457 78.5645-54.3457L83.5449-54.3457C85.791-54.3457 86.8652-53.125 86.8652-51.3184L86.8652-19.0918C86.8652-17.2852 85.791-16.0156 83.5449-16.0156Z"/>
  </g>
  <g id="Thin-M" transform="matrix(1 0 0 1 787.33 1126)">
   <path d="M25.6348 8.05664L112.598 8.05664C121.24 8.05664 125.732 3.4668 125.732-5.0293L125.732-65.2344C125.732-73.7305 121.24-78.3691 112.598-78.3691L25.6348-78.3691C16.9922-78.3691 12.4512-73.877 12.4512-65.2344L12.4512-5.0293C12.4512 3.56445 16.9922 8.05664 25.6348 8.05664ZM55.8105-16.6504C53.8086-16.6504 52.832-17.7734 52.832-19.4336L52.832-50.9277C52.832-52.5879 53.8086-53.7109 55.8105-53.7109L60.791-53.7109C62.8418-53.7109 63.7695-52.5879 63.7695-50.9277L63.7695-19.4336C63.7695-17.7734 62.8418-16.6504 60.791-16.6504ZM77.4414-16.6504C75.4395-16.6504 74.5117-17.7734 74.5117-19.4336L74.5117-50.9277C74.5117-52.5879 75.4395-53.7109 77.4414-53.7109L82.4219-53.7109C84.4238-53.7109 85.4004-52.5879 85.4004-50.9277L85.4004-19.4336C85.4004-17.7734 84.4238-16.6504 82.4219-16.6504Z"/>
  </g>
  <g id="Ultralight-M" transform="matrix(1 0 0 1 490.888 1126)">
   <path d="M25 7.56836L112.695 7.56836C120.85 7.56836 125.195 3.125 125.195-4.98047L125.195-65.2832C125.195-73.3887 120.85-77.832 112.695-77.832L25-77.832C16.7969-77.832 12.4512-73.4863 12.4512-65.2832L12.4512-4.98047C12.4512 3.22266 16.7969 7.56836 25 7.56836ZM55.8105-16.9434C53.9551-16.9434 53.0273-18.0176 53.0273-19.5801L53.0273-50.7812C53.0273-52.2949 53.9551-53.3691 55.8105-53.3691L60.791-53.3691C62.6953-53.3691 63.5742-52.2949 63.5742-50.7812L63.5742-19.5801C63.5742-18.0176 62.6953-16.9434 60.791-16.9434ZM76.8555-16.9434C75-16.9434 74.1699-18.0176 74.1699-19.5801L74.1699-50.7812C74.1699-52.2949 75-53.3691 76.8555-53.3691L81.8848-53.3691C83.7402-53.3691 84.668-52.2949 84.668-50.7812L84.668-19.5801C84.668-18.0176 83.7402-16.9434 81.8848-16.9434Z"/>
  </g>
  <g id="Black-S" transform="matrix(1 0 0 1 2877.35 696)">
   <path d="M25 2.92969L87.1094 2.92969C96.6797 2.92969 102.344-2.73438 102.344-12.3047L102.344-58.1055C102.344-67.6758 96.6797-73.3398 87.1094-73.3398L25-73.3398C15.4297-73.3398 9.76562-67.6758 9.76562-58.1055L9.76562-12.3047C9.76562-2.73438 15.4297 2.92969 25 2.92969ZM43.7012-18.2617C41.3086-18.2617 39.8438-19.7754 39.8438-22.0703L39.8438-48.291C39.8438-50.5859 41.3086-52.0996 43.7012-52.0996L49.1699-52.0996C51.5625-52.0996 52.9785-50.5859 52.9785-48.291L52.9785-22.0703C52.9785-19.7754 51.5625-18.2617 49.1699-18.2617ZM62.9395-18.2617C60.5469-18.2617 59.1309-19.7754 59.1309-22.0703L59.1309-48.291C59.1309-50.5859 60.5469-52.0996 62.9395-52.0996L68.4082-52.0996C70.8008-52.0996 72.2656-50.5859 72.2656-48.291L72.2656-22.0703C72.2656-19.7754 70.8008-18.2617 68.4082-18.2617Z"/>
  </g>
  <g id="Heavy-S" transform="matrix(1 0 0 1 2580.88 696)">
   <path d="M24.3652 2.34375L87.3047 2.34375C96.582 2.34375 101.855-2.97852 101.855-12.207L101.855-58.2031C101.855-67.4316 96.582-72.7539 87.3047-72.7539L24.3652-72.7539C15.0879-72.7539 9.76562-67.4316 9.76562-58.2031L9.76562-12.207C9.76562-2.97852 15.0879 2.34375 24.3652 2.34375ZM43.7012-18.5547C41.4062-18.5547 40.0391-20.0195 40.0391-22.1191L40.0391-48.2422C40.0391-50.3906 41.4062-51.8066 43.7012-51.8066L48.7793-51.8066C51.123-51.8066 52.3926-50.3906 52.3926-48.2422L52.3926-22.1191C52.3926-20.0195 51.123-18.5547 48.7793-18.5547ZM62.8418-18.5547C60.5469-18.5547 59.2285-20.0195 59.2285-22.1191L59.2285-48.2422C59.2285-50.3906 60.5469-51.8066 62.8418-51.8066L67.9688-51.8066C70.2637-51.8066 71.582-50.3906 71.582-48.2422L71.582-22.1191C71.582-20.0195 70.2637-18.5547 67.9688-18.5547Z"/>
  </g>
  <g id="Bold-S" transform="matrix(1 0 0 1 2284.41 696)">
   <path d="M23.6328 1.66016L87.5 1.66016C96.4844 1.66016 101.367-3.22266 101.367-12.1094L101.367-58.3008C101.367-67.1875 96.4844-72.0703 87.5-72.0703L23.6328-72.0703C14.6973-72.0703 9.76562-67.1875 9.76562-58.3008L9.76562-12.1094C9.76562-3.22266 14.6973 1.66016 23.6328 1.66016ZM43.7012-18.9453C41.5039-18.9453 40.2832-20.2637 40.2832-22.168L40.2832-48.2422C40.2832-50.1465 41.5039-51.4648 43.7012-51.4648L48.3887-51.4648C50.6348-51.4648 51.8066-50.1465 51.8066-48.2422L51.8066-22.168C51.8066-20.2637 50.6348-18.9453 48.3887-18.9453ZM62.793-18.9453C60.5469-18.9453 59.375-20.2637 59.375-22.168L59.375-48.2422C59.375-50.1465 60.5469-51.4648 62.793-51.4648L67.4316-51.4648C69.6289-51.4648 70.8496-50.1465 70.8496-48.2422L70.8496-22.168C70.8496-20.2637 69.6289-18.9453 67.4316-18.9453Z"/>
  </g>
  <g id="Semibold-S" transform="matrix(1 0 0 1 1987.9 696)">
   <path d="M23.0957 1.17188L87.6465 1.17188C96.3867 1.17188 100.977-3.36914 100.977-12.0117L100.977-58.3984C100.977-67.041 96.3867-71.582 87.6465-71.582L23.0957-71.582C14.4043-71.582 9.76562-67.041 9.76562-58.3984L9.76562-12.0117C9.76562-3.36914 14.4043 1.17188 23.0957 1.17188ZM43.75-19.1895C41.5527-19.1895 40.4785-20.4102 40.4785-22.2168L40.4785-48.1934C40.4785-50 41.5527-51.2695 43.75-51.2695L48.0957-51.2695C50.293-51.2695 51.3672-50 51.3672-48.1934L51.3672-22.2168C51.3672-20.4102 50.293-19.1895 48.0957-19.1895ZM62.6953-19.1895C60.5469-19.1895 59.4238-20.4102 59.4238-22.2168L59.4238-48.1934C59.4238-50 60.5469-51.2695 62.6953-51.2695L67.0898-51.2695C69.2383-51.2695 70.3125-50 70.3125-48.1934L70.3125-22.2168C70.3125-20.4102 69.2383-19.1895 67.0898-19.1895Z"/>
  </g>
  <g id="Medium-S" transform="matrix(1 0 0 1 1691.31 696)">
   <path d="M22.7051 0.830078L87.7441 0.830078C96.3379 0.830078 100.732-3.51562 100.732-11.9629L100.732-58.4473C100.732-66.8945 96.3379-71.2402 87.7441-71.2402L22.7051-71.2402C14.209-71.2402 9.76562-66.8945 9.76562-58.4473L9.76562-11.9629C9.76562-3.51562 14.209 0.830078 22.7051 0.830078ZM43.75-19.3848C41.6016-19.3848 40.5762-20.5566 40.5762-22.2656L40.5762-48.1934C40.5762-49.9023 41.6016-51.0742 43.75-51.0742L47.9004-51.0742C50-51.0742 51.0254-49.9023 51.0254-48.1934L51.0254-22.2656C51.0254-20.5566 50-19.3848 47.9004-19.3848ZM62.6953-19.3848C60.5469-19.3848 59.5215-20.5566 59.5215-22.2656L59.5215-48.1934C59.5215-49.9023 60.5469-51.0742 62.6953-51.0742L66.8457-51.0742C68.8965-51.0742 69.9219-49.9023 69.9219-48.1934L69.9219-22.2656C69.9219-20.5566 68.8965-19.3848 66.8457-19.3848Z"/>
  </g>
  <g id="Regular-S" transform="matrix(1 0 0 1 1394.79 696)">
   <path d="M22.2168 0.390625L87.8906 0.390625C96.2402 0.390625 100.342-3.71094 100.342-11.9141L100.342-58.4961C100.342-66.6992 96.2402-70.8008 87.8906-70.8008L22.2168-70.8008C13.916-70.8008 9.76562-66.6992 9.76562-58.4961L9.76562-11.9141C9.76562-3.71094 13.916 0.390625 22.2168 0.390625ZM43.75-19.5801C41.6992-19.5801 40.7715-20.7031 40.7715-22.3145L40.7715-48.1445C40.7715-49.7559 41.6992-50.8301 43.75-50.8301L47.6074-50.8301C49.6582-50.8301 50.5859-49.7559 50.5859-48.1445L50.5859-22.3145C50.5859-20.7031 49.6582-19.5801 47.6074-19.5801ZM62.5977-19.5801C60.5469-19.5801 59.5703-20.7031 59.5703-22.3145L59.5703-48.1445C59.5703-49.7559 60.5469-50.8301 62.5977-50.8301L66.4551-50.8301C68.5059-50.8301 69.4336-49.7559 69.4336-48.1445L69.4336-22.3145C69.4336-20.7031 68.5059-19.5801 66.4551-19.5801Z"/>
  </g>
  <g id="Light-S" transform="matrix(1 0 0 1 1098.42 696)">
   <path d="M21.3867-0.292969L88.0371-0.292969C95.752-0.292969 99.6582-4.15039 99.6582-11.7676L99.6582-58.5938C99.6582-66.2109 95.752-70.1172 88.0371-70.1172L21.3867-70.1172C13.6719-70.1172 9.76562-66.2598 9.76562-58.5938L9.76562-11.7676C9.76562-4.15039 13.6719-0.292969 21.3867-0.292969ZM43.75-20.0195C41.8457-20.0195 41.0156-21.0449 41.0156-22.5098L41.0156-47.9004C41.0156-49.4141 41.8457-50.3906 43.75-50.3906L47.6074-50.3906C49.5117-50.3906 50.3418-49.4141 50.3418-47.9004L50.3418-22.5098C50.3418-21.0449 49.5117-20.0195 47.6074-20.0195ZM61.8652-20.0195C60.0098-20.0195 59.1309-21.0449 59.1309-22.5098L59.1309-47.9004C59.1309-49.4141 60.0098-50.3906 61.8652-50.3906L65.7227-50.3906C67.5781-50.3906 68.457-49.4141 68.457-47.9004L68.457-22.5098C68.457-21.0449 67.5781-20.0195 65.7227-20.0195Z"/>
  </g>
  <g id="Thin-S" transform="matrix(1 0 0 1 802.174 696)">
   <path d="M20.3125-1.12305L88.1836-1.12305C95.1172-1.12305 98.7305-4.78516 98.7305-11.6211L98.7305-58.6914C98.7305-65.5762 95.1172-69.2383 88.1836-69.2383L20.3125-69.2383C13.3789-69.2383 9.76562-65.625 9.76562-58.6914L9.76562-11.6211C9.76562-4.6875 13.3789-1.12305 20.3125-1.12305ZM43.7012-20.5566C42.0898-20.5566 41.3086-21.4355 41.3086-22.7539L41.3086-47.6074C41.3086-48.9258 42.0898-49.8535 43.7012-49.8535L47.6074-49.8535C49.2676-49.8535 50-48.9258 50-47.6074L50-22.7539C50-21.4355 49.2676-20.5566 47.6074-20.5566ZM60.8887-20.5566C59.2773-20.5566 58.4961-21.4355 58.4961-22.7539L58.4961-47.6074C58.4961-48.9258 59.2773-49.8535 60.8887-49.8535L64.7949-49.8535C66.4062-49.8535 67.1875-48.9258 67.1875-47.6074L67.1875-22.7539C67.1875-21.4355 66.4062-20.5566 64.7949-20.5566Z"/>
  </g>
  <g id="Ultralight-S" transform="matrix(1 0 0 1 505.707 696)">
   <path d="M19.7754-1.5625L88.2812-1.5625C94.8242-1.5625 98.2422-5.12695 98.2422-11.5234L98.2422-58.7891C98.2422-65.2344 94.8242-68.75 88.2812-68.75L19.7754-68.75C13.2324-68.75 9.76562-65.2832 9.76562-58.7891L9.76562-11.5234C9.76562-5.0293 13.2324-1.5625 19.7754-1.5625ZM43.7012-20.8496C42.1875-20.8496 41.4551-21.6797 41.4551-22.9004L41.4551-47.4609C41.4551-48.6816 42.1875-49.5117 43.7012-49.5117L47.6074-49.5117C49.1699-49.5117 49.8535-48.6816 49.8535-47.4609L49.8535-22.9004C49.8535-21.6797 49.1699-20.8496 47.6074-20.8496ZM60.3516-20.8496C58.8867-20.8496 58.1543-21.6797 58.1543-22.9004L58.1543-47.4609C58.1543-48.6816 58.8867-49.5117 60.3516-49.5117L64.2578-49.5117C65.7715-49.5117 66.5039-48.6816 66.5039-47.4609L66.5039-22.9004C66.5039-21.6797 65.7715-20.8496 64.2578-20.8496Z"/>
  </g>
 </g>
</svg>
