<?xml version="1.0" encoding="UTF-8" standalone="no"?>
<svg
   xmlns:dc="http://purl.org/dc/elements/1.1/"
   xmlns:cc="http://creativecommons.org/ns#"
   xmlns:rdf="http://www.w3.org/1999/02/22-rdf-syntax-ns#"
   xmlns:svg="http://www.w3.org/2000/svg"
   xmlns="http://www.w3.org/2000/svg"
   xmlns:sodipodi="http://sodipodi.sourceforge.net/DTD/sodipodi-0.dtd"
   xmlns:inkscape="http://www.inkscape.org/namespaces/inkscape"
   width="15mm"
   height="15mm"
   viewBox="0 0 15 15"
   version="1.1"
   id="svg8"
   inkscape:version="1.0beta2 (2b71d25, 2019-12-03)"
   sodipodi:docname="singlevalue.svg"
   inkscape:export-filename="/Users/TylerAnderson/Coding/Swift/Treviz/Resources/Plot type icons/singlevalue.png"
   inkscape:export-xdpi="96"
   inkscape:export-ydpi="96">
  <defs
     id="defs2">
    <rect
       id="rect840"
       height="13.098701"
       width="22.655851"
       y="30.994047"
       x="13.607143" />
  </defs>
  <sodipodi:namedview
     id="base"
     pagecolor="#ffffff"
     bordercolor="#666666"
     borderopacity="1.0"
     inkscape:pageopacity="0.0"
     inkscape:pageshadow="2"
     inkscape:zoom="2.914572"
     inkscape:cx="-28.190068"
     inkscape:cy="42.733156"
     inkscape:document-units="mm"
     inkscape:current-layer="layer1"
     inkscape:document-rotation="0"
     showgrid="false"
     inkscape:window-width="1280"
     inkscape:window-height="650"
     inkscape:window-x="0"
     inkscape:window-y="23"
     inkscape:window-maximized="0" />
  <metadata
     id="metadata5">
    <rdf:RDF>
      <cc:Work
         rdf:about="">
        <dc:format>image/svg+xml</dc:format>
        <dc:type
           rdf:resource="http://purl.org/dc/dcmitype/StillImage" />
        <dc:title />
      </cc:Work>
    </rdf:RDF>
  </metadata>
  <g
     inkscape:label="Layer 1"
     inkscape:groupmode="layer"
     id="layer1">
    <g
       style="font-style:normal;font-weight:normal;font-size:9.12195px;line-height:1.25;font-family:sans-serif;fill:#000000;fill-opacity:1;stroke:none;stroke-width:0.228048"
       id="text858"
       transform="scale(0.9588738,1.0428901)"
       aria-label="x=0">
      <path
         id="path10096"
         style="font-style:italic;font-variant:normal;font-weight:bold;font-stretch:normal;font-size:9.12195px;font-family:Palatino;-inkscape-font-specification:'Palatino Bold Italic';font-variant-ligatures:normal;font-variant-caps:normal;font-variant-numeric:normal;font-variant-east-asian:normal;fill:#000000;fill-opacity:1;stroke-width:0.228048"
         d="M 0.26489149,9.7372251 Q 0.33615673,9.5367916 0.3806975,9.2250062 0.42523827,8.9087667 0.42078419,8.7929607 l 0.21824979,-0.017816 0.057903,0.2806068 q 0.13807639,0.053449 0.23606609,0.053449 0.10689783,0 0.20043343,-0.040087 Q 1.275967,9.0067564 1.391773,8.9043126 1.5476657,8.7573281 1.7480992,8.5078998 2.1088795,8.0491298 2.2202314,7.8709667 2.0598846,6.8687993 1.966349,6.5748302 1.8995378,6.3654886 1.7792777,6.2764071 q -0.12026,-0.093536 -0.2583364,-0.093536 -0.1603468,0 -0.3385099,0.111352 Q 1.0042683,6.4055753 0.88400822,6.6104629 L 0.67466659,6.4946568 Q 1.0354468,5.9111727 1.0933499,5.813183 1.1512529,5.7107393 1.2136099,5.5593006 1.3962271,5.4702191 1.565482,5.4256783 q 0.169255,-0.044541 0.3206936,-0.044541 0.4097751,0 0.6547494,0.2538824 0.2449742,0.2538824 0.3875047,1.0689786 0.02227,0.1291682 0.040087,0.2271579 Q 3.3827455,6.329856 3.4807352,6.2006877 3.7657962,5.8265453 3.9395052,5.6751066 4.1132142,5.523668 4.273561,5.4568569 q 0.1648008,-0.066811 0.3117854,-0.066811 0.1336223,0 0.3028772,0.071265 Q 4.736785,5.871086 4.6833361,6.445662 L 4.4873567,6.4812946 4.4071833,6.2318663 q -0.09799,-0.044541 -0.173709,-0.044541 -0.1425305,0 -0.2806069,0.075719 Q 3.752434,6.3743968 3.5163679,6.6460955 3.351567,6.8376208 3.0397816,7.2919367 3.1600417,8.0402216 3.2268528,8.294104 q 0.1068979,0.4320455 0.169255,0.5656679 0.066811,0.1336223 0.1469845,0.1915253 0.084627,0.057903 0.1648009,0.057903 0.093536,0 0.2137957,-0.062357 0.1603468,-0.084627 0.4988566,-0.3696884 L 4.563076,8.8998585 4.0374949,9.3452663 Q 3.7702503,9.5679701 3.5965413,9.674868 q -0.169255,0.1068978 -0.285061,0.1425305 -0.1113519,0.035633 -0.2048875,0.035633 -0.1870713,0 -0.3518721,-0.1380764 Q 2.5899198,9.5813324 2.5008383,9.2650929 2.429573,9.0290268 2.3004048,8.2183847 L 1.8460889,8.8642259 Q 1.5120331,9.3185418 1.2626048,9.5635161 1.0933499,9.732771 0.95081938,9.7951281 q -0.14253047,0.062357 -0.29842317,0.062357 -0.0846275,0 -0.1380764,-0.017816 -0.0489948,-0.013362 -0.24942832,-0.1024437 z" />
      <path
         id="path10098"
         style="font-style:italic;font-variant:normal;font-weight:bold;font-stretch:normal;font-size:9.12195px;font-family:Palatino;-inkscape-font-specification:'Palatino Bold Italic';font-variant-ligatures:normal;font-variant-caps:normal;font-variant-numeric:normal;font-variant-east-asian:normal;fill:#000000;fill-opacity:1;stroke-width:0.228048"
         d="M 5.2089172,6.2274122 H 10.112856 V 6.8866156 H 5.2089172 Z m 0,1.61683 H 10.112856 V 8.5034457 H 5.2089172 Z" />
      <path
         id="path10100"
         style="font-style:italic;font-variant:normal;font-weight:bold;font-stretch:normal;font-size:9.12195px;font-family:Palatino;-inkscape-font-specification:'Palatino Bold Italic';font-variant-ligatures:normal;font-variant-caps:normal;font-variant-numeric:normal;font-variant-east-asian:normal;fill:#000000;fill-opacity:1;stroke-width:0.228048"
         d="m 10.812146,7.6705332 q 0,-1.6702789 0.663657,-2.9352369 0.668112,-1.2649579 1.777177,-1.2649579 0.4365,0 0.752739,0.1826172 0.31624,0.1826171 0.494403,0.4721322 0.182617,0.289515 0.271698,0.7171064 0.09354,0.4231373 0.09354,0.8774532 0,0.9977133 -0.31624,1.9865185 -0.38305,1.1758763 -1.046708,1.7459982 -0.472132,0.405321 -1.113519,0.405321 -0.463224,0 -0.810642,-0.231612 -0.347418,-0.231612 -0.55676,-0.7037442 -0.209341,-0.4721322 -0.209341,-1.2515957 z m 1.0378,1.0066215 q 0,0.4498618 0.151438,0.6413871 0.151439,0.1915253 0.383051,0.1915253 0.316239,0 0.503311,-0.2538824 0.329601,-0.4498618 0.668111,-2.2715794 0.267245,-1.443121 0.267245,-2.3250283 0,-0.4364995 -0.164801,-0.636933 -0.164801,-0.2004335 -0.409775,-0.2004335 -0.195979,0 -0.351872,0.1336223 -0.213796,0.1826172 -0.400867,0.7438309 -0.187071,0.5612138 -0.396413,1.7192738 -0.249428,1.380764 -0.249428,2.2582172 z" />
    </g>
  </g>
</svg>
